<svg id="RollingmateLogo" xmlns="http://www.w3.org/2000/svg" viewBox="0 0 423.47 420.46"><defs><style>.cls-1{fill:#fff;}</style></defs><title>Logo rollingmate sin patas blanco 26-9-23</title><g id="LogoRollingmate"><path class="cls-1" d="M244.71,419.9c-8.8.23-17.89.35-27.19.35-61.18,0-113.26-5.13-132.76-12.29-30.07-1-49.2-2.46-49.2-4.11S51.5,401,77.14,400c4.17-6,30.25-11.21,67.69-14.17a164.78,164.78,0,0,0,14.72,12.69q4.19,3.21,8.57,6.14c.57.39,1.13.76,1.71,1.12,3.31,1.22,6.69,2.36,10.11,3.4C201.38,415.75,224.61,418.94,244.71,419.9Z"/><path class="cls-1" d="M285.88,286.33c34.18,18,37,19.48,51.74,22.72a264.38,264.38,0,0,1-2.06,36.51c-74.39-27.26-81.84-34.15-98.15-49.25l-.11-7.86h-.05l-.08-8.08c22-14,58.73-37.41,85.63-67.35a371.52,371.52,0,0,1,9,37.63C315.61,265,306.6,272,285.88,286.33Z"/><path class="cls-1" d="M357.2,129.35l0,0c-.66-.45-1.33-.89-2-1.33a.93.93,0,0,1-.28-.28l-.17-.25c-.09-.15-.19-.29-.29-.44-7.82-11.49-25.79-19.35-47.4-23.86-6-1.24-12.26-2.24-18.68-3a256.52,256.52,0,0,0-29.66-1.69c-1.66,0-3.32,0-5,0A252.49,252.49,0,0,0,222.58,101q-3.87.55-7.62,1.25a1,1,0,0,1-1-.36L155.06,28.12,155,28c-1.88-1.85-5.35-2.29-9.16-3h-.13L2.83,2.72a1,1,0,0,0-1.16,1L7.76,16.29a1,1,0,0,0,.76,1l133,41c.24.06.76.74.9.95l35.35,54a1,1,0,0,1-.36,1.42c-8.87,5-15.17,11.24-17.56,18.76a22.49,22.49,0,0,0-1.06,6.38v.06a1,1,0,0,1-.34.74,165,165,0,0,0-57.79,110.9q-.27,2.85-.43,5.73-.25,4.55-.26,9.17c0,1.45,0,2.91.05,4.35a164.11,164.11,0,0,0,11.41,56.33,1.8,1.8,0,0,1,.08.21c.24.6.48,1.21.73,1.81s.47,1.14.72,1.71l.75,1.75q2.17,5,4.67,9.8c1.31,2.53,2.69,5,4.13,7.48a1.67,1.67,0,0,1,.12.23s0,0,0,0c.42.71.84,1.42,1.28,2.13a163.61,163.61,0,0,0,13.77,19.41,1.07,1.07,0,0,1,.19.18,165.86,165.86,0,0,0,27.93,26.73q3.75,2.83,7.67,5.46c.57.39,1.13.76,1.71,1.12,1.26.46,2.53.92,3.8,1.35l.85.28,1.9.64c.81.27,1.63.53,2.44.78.18.07.37.12.55.17.65.21,1.3.41,2,.6l.39.12.48.14c2.27.67,4.57,1.3,6.87,1.89l2.23.56c.74.19,1.49.37,2.23.54l2.24.52,2.78.61c.74.17,1.49.32,2.23.47l1.84.37,1.49.29c.93.18,1.86.36,2.79.52,4.67.85,9.33,1.56,13.93,2.15.95.13,1.89.24,2.83.35l2.78.33,2.82.29c1.8.18,3.59.34,5.36.49l2.87.22,2.6.17c4.36.29,8.6.46,12.66.53h0c1.77,0,3.5.06,5.2.06q4.27,0,8.83-.15l1.67-.06q4.2-.15,8.6-.45l2.24-.16c2.25-.16,4.54-.36,6.85-.59.77-.07,1.55-.15,2.32-.24l2.28-.25q2.66-.3,5.36-.66l2.9-.4,1.45-.21,1.45-.22,2.44-.39c2.4-.38,4.82-.8,7.23-1.27l1.38-.26,1.57-.32c.63-.12,1.27-.25,1.9-.39l1-.22c.6-.12,1.19-.25,1.78-.39q1.38-.3,2.76-.63l2.85-.69q2.92-.74,5.84-1.54l.81-.23c50.52-28.09,84.88-83.35,84.88-146.93C421.78,208.24,396.4,159.74,357.2,129.35ZM194.75,144.06l1.49-.83a1,1,0,0,1,1.33.33l2.59,3.95a1,1,0,0,1,.09.94A185.44,185.44,0,0,0,228,153.52a226.91,226.91,0,0,0,25.67,1.31c1,0,1.94,0,2.92,0l-2.92-3.63-17.29-21.47a1,1,0,0,1,.57-1.63,139.05,139.05,0,0,1,16.72-2.4q5.71-.47,11.53-.47a140.15,140.15,0,0,1,65.52,16.15,1,1,0,0,1,.09,1.73c-4.27,3-12.48,6.59-24.52,9.49h0q-4.92,1.77-10,3A160.58,160.58,0,0,1,262,160.36c-2.75.09-5.51.12-8.26.08a155,155,0,0,1-26.32-2.51,114.72,114.72,0,0,1-28.94-9.12c-1.25-.45-2.41-.9-3.5-1.35A1.89,1.89,0,0,1,194.75,144.06ZM389.43,334q-2,3.63-4.15,7.13c0,.07,0,.07,0,.07l-.5.79q-3.24,5.11-6.89,9.93h0c-19.15,14.52-58.76,29.71-114.49,29.71-48.6,0-84.94-11.57-106.15-23.94q-4.48-5.3-8.46-11l0,0c-.66-1-1.31-1.93-1.94-2.91q-3.48-5.32-6.47-11a141.1,141.1,0,0,1,29.79-170.57,1,1,0,0,1,.25-.16,46.36,46.36,0,0,1-3.6-3.41,32.89,32.89,0,0,1-5.83-8.36,26,26,0,0,1-1.67-4.8,22.77,22.77,0,0,1-.47-5,23.27,23.27,0,0,0,3.5,9,33.09,33.09,0,0,0,6.39,7.12,52.73,52.73,0,0,0,7.83,5.55,90.19,90.19,0,0,0,8.58,4.42,140.25,140.25,0,0,0,18.26,6.57,193.67,193.67,0,0,0,19,4.54c6.38,1.29,12.84,2.24,19.31,3,4,.51,8.06.88,12.1,1.17v.23c1.35,0,2.71,0,4.06,0h.93c38,0,78.25-8.12,93.54-25.68a1,1,0,0,1,1.39-.13,141.65,141.65,0,0,1,47.79,72.39c-12.45-7.08-29.6-14.26-49.77-22.71,6.66,16.05,8.84,23.85,12.45,36.77,19.39,7.88,24.76,10.31,35.79,15.81-12.61,28.15-22,36.6-28.27,42.2-.18,16.23-1,23.81-3.3,37,16.88-14.62,27.65-27.68,34.63-39.36A140.83,140.83,0,0,1,389.43,334Z"/><path class="cls-1" d="M337.62,309.05a264.38,264.38,0,0,1-2.06,36.51c-74.39-27.26-81.84-34.15-98.15-49.25l-.11-7.86h-.05l-.08-8.08c22-14,58.73-37.41,85.63-67.35a371.52,371.52,0,0,1,9,37.63C315.61,265,306.6,272,285.88,286.33,320.06,304.34,322.85,305.81,337.62,309.05Z"/><path class="cls-1" d="M285.88,286.33c34.18,18,37,19.48,51.74,22.72a264.38,264.38,0,0,1-2.06,36.51c-74.39-27.26-81.84-34.15-98.15-49.25l-.11-7.86h-.05l-.08-8.08c22-14,58.73-37.41,85.63-67.35a371.52,371.52,0,0,1,9,37.63C315.61,265,306.6,272,285.88,286.33Z"/><path class="cls-1" d="M357.2,129.35l0,0c-.66-.45-1.33-.89-2-1.33a.93.93,0,0,1-.28-.28l-.17-.25c-.09-.15-.19-.29-.29-.44-7.82-11.49-25.79-19.35-47.4-23.86-6-1.24-12.26-2.24-18.68-3a256.52,256.52,0,0,0-29.66-1.69c-1.66,0-3.32,0-5,0A252.49,252.49,0,0,0,222.58,101q-3.87.55-7.62,1.25a1,1,0,0,1-1-.36L155.06,28.12,155,28c-1.88-1.85-5.35-2.29-9.16-3h-.13L2.83,2.72a1,1,0,0,0-1.16,1L7.76,16.29a1,1,0,0,0,.76,1l133,41c.24.06.76.74.9.95l35.35,54a1,1,0,0,1-.36,1.42c-8.87,5-15.17,11.24-17.56,18.76a22.49,22.49,0,0,0-1.06,6.38v.06a1,1,0,0,1-.34.74,165,165,0,0,0-57.79,110.9q-.27,2.85-.43,5.73-.25,4.55-.26,9.17c0,1.45,0,2.91.05,4.35a164.11,164.11,0,0,0,11.41,56.33,1.8,1.8,0,0,1,.08.21c.24.6.48,1.21.73,1.81s.47,1.14.72,1.71l.75,1.75q2.17,5,4.67,9.8c1.31,2.53,2.69,5,4.13,7.48a1.67,1.67,0,0,1,.12.23s0,0,0,0c.42.71.84,1.42,1.28,2.13a163.61,163.61,0,0,0,13.77,19.41,1.07,1.07,0,0,1,.19.18,165.86,165.86,0,0,0,27.93,26.73q3.75,2.83,7.67,5.46c.57.39,1.13.76,1.71,1.12,1.26.46,2.53.92,3.8,1.35l.85.28,1.9.64c.81.27,1.63.53,2.44.78.18.07.37.12.55.17.65.21,1.3.41,2,.6l.39.12.48.14c2.27.67,4.57,1.3,6.87,1.89l2.23.56c.74.19,1.49.37,2.23.54l2.24.52,2.78.61c.74.17,1.49.32,2.23.47l1.84.37,1.49.29c.93.18,1.86.36,2.79.52,4.67.85,9.33,1.56,13.93,2.15.95.13,1.89.24,2.83.35l2.78.33,2.82.29c1.8.18,3.59.34,5.36.49l2.87.22,2.6.17c4.36.29,8.6.46,12.66.53h0c1.77,0,3.5.06,5.2.06q4.27,0,8.83-.15l1.67-.06q4.2-.15,8.6-.45l2.24-.16c2.25-.16,4.54-.36,6.85-.59.77-.07,1.55-.15,2.32-.24l2.28-.25q2.66-.3,5.36-.66l2.9-.4,1.45-.21,1.45-.22,2.44-.39c2.4-.38,4.82-.8,7.23-1.27l1.38-.26,1.57-.32c.63-.12,1.27-.25,1.9-.39l1-.22c.6-.12,1.19-.25,1.78-.39q1.38-.3,2.76-.63l2.85-.69q2.92-.74,5.84-1.54l.81-.23c50.52-28.09,84.88-83.35,84.88-146.93C421.78,208.24,396.4,159.74,357.2,129.35ZM194.75,144.06l1.49-.83a1,1,0,0,1,1.33.33l2.59,3.95a1,1,0,0,1,.09.94A185.44,185.44,0,0,0,228,153.52a226.91,226.91,0,0,0,25.67,1.31c1,0,1.94,0,2.92,0l-2.92-3.63-17.29-21.47a1,1,0,0,1,.57-1.63,139.05,139.05,0,0,1,16.72-2.4q5.71-.47,11.53-.47a140.15,140.15,0,0,1,65.52,16.15,1,1,0,0,1,.09,1.73c-4.27,3-12.48,6.59-24.52,9.49h0q-4.92,1.77-10,3A160.58,160.58,0,0,1,262,160.36c-2.75.09-5.51.12-8.26.08a155,155,0,0,1-26.32-2.51,114.72,114.72,0,0,1-28.94-9.12c-1.25-.45-2.41-.9-3.5-1.35A1.89,1.89,0,0,1,194.75,144.06ZM389.43,334q-2,3.63-4.15,7.13c0,.07,0,.07,0,.07l-.5.79q-3.24,5.11-6.89,9.93h0c-19.15,14.52-58.76,29.71-114.49,29.71-48.6,0-84.94-11.57-106.15-23.94q-4.48-5.3-8.46-11l0,0c-.66-1-1.31-1.93-1.94-2.91q-3.48-5.32-6.47-11a141.1,141.1,0,0,1,29.79-170.57,1,1,0,0,1,.25-.16,46.36,46.36,0,0,1-3.6-3.41,32.89,32.89,0,0,1-5.83-8.36,26,26,0,0,1-1.67-4.8,22.77,22.77,0,0,1-.47-5,23.27,23.27,0,0,0,3.5,9,33.09,33.09,0,0,0,6.39,7.12,52.73,52.73,0,0,0,7.83,5.55,90.19,90.19,0,0,0,8.58,4.42,140.25,140.25,0,0,0,18.26,6.57,193.67,193.67,0,0,0,19,4.54c6.38,1.29,12.84,2.24,19.31,3,4,.51,8.06.88,12.1,1.17v.23c1.35,0,2.71,0,4.06,0h.93c38,0,78.25-8.12,93.54-25.68a1,1,0,0,1,1.39-.13,141.65,141.65,0,0,1,47.79,72.39c-12.45-7.08-29.6-14.26-49.77-22.71,6.66,16.05,8.84,23.85,12.45,36.77,19.39,7.88,24.76,10.31,35.79,15.81-12.61,28.15-22,36.6-28.27,42.2-.18,16.23-1,23.81-3.3,37,16.88-14.62,27.65-27.68,34.63-39.36A140.83,140.83,0,0,1,389.43,334Z"/><path class="cls-1" d="M337.62,309.05a264.38,264.38,0,0,1-2.06,36.51c-74.39-27.26-81.84-34.15-98.15-49.25l-.11-7.86h-.05l-.08-8.08c22-14,58.73-37.41,85.63-67.35a371.52,371.52,0,0,1,9,37.63C315.61,265,306.6,272,285.88,286.33,320.06,304.34,322.85,305.81,337.62,309.05Z"/><path class="cls-1" d="M285.88,286.33c34.18,18,37,19.48,51.74,22.72a264.38,264.38,0,0,1-2.06,36.51c-74.39-27.26-81.84-34.15-98.15-49.25l-.11-7.86h-.05l-.08-8.08c22-14,58.73-37.41,85.63-67.35a371.52,371.52,0,0,1,9,37.63C315.61,265,306.6,272,285.88,286.33Z"/><path class="cls-1" d="M357.2,129.35l0,0c-.66-.45-1.33-.89-2-1.33a.93.93,0,0,1-.28-.28l-.17-.25c-.09-.15-.19-.29-.29-.44-7.82-11.49-25.79-19.35-47.4-23.86-6-1.24-12.26-2.24-18.68-3a256.52,256.52,0,0,0-29.66-1.69c-1.66,0-3.32,0-5,0A252.49,252.49,0,0,0,222.58,101q-3.87.55-7.62,1.25a1,1,0,0,1-1-.36L155.06,28.12,155,28c-1.88-1.85-5.35-2.29-9.16-3h-.13L2.83,2.72a1,1,0,0,0-1.16,1L7.76,16.29a1,1,0,0,0,.76,1l133,41c.24.06.76.74.9.95l35.35,54a1,1,0,0,1-.36,1.42c-8.87,5-15.17,11.24-17.56,18.76a22.49,22.49,0,0,0-1.06,6.38v.06a1,1,0,0,1-.34.74,165,165,0,0,0-57.79,110.9q-.27,2.85-.43,5.73-.25,4.55-.26,9.17c0,1.45,0,2.91.05,4.35a164.11,164.11,0,0,0,11.41,56.33,1.8,1.8,0,0,1,.08.21c.24.6.48,1.21.73,1.81s.47,1.14.72,1.71l.75,1.75q2.17,5,4.67,9.8c1.31,2.53,2.69,5,4.13,7.48a1.67,1.67,0,0,1,.12.23s0,0,0,0c.42.71.84,1.42,1.28,2.13a163.61,163.61,0,0,0,13.77,19.41,1.07,1.07,0,0,1,.19.18,165.86,165.86,0,0,0,27.93,26.73q3.75,2.83,7.67,5.46c.57.39,1.13.76,1.71,1.12,1.26.46,2.53.92,3.8,1.35l.85.28,1.9.64c.81.27,1.63.53,2.44.78.18.07.37.12.55.17.65.21,1.3.41,2,.6l.39.12.48.14c2.27.67,4.57,1.3,6.87,1.89l2.23.56c.74.19,1.49.37,2.23.54l2.24.52,2.78.61c.74.17,1.49.32,2.23.47l1.84.37,1.49.29c.93.18,1.86.36,2.79.52,4.67.85,9.33,1.56,13.93,2.15.95.13,1.89.24,2.83.35l2.78.33,2.82.29c1.8.18,3.59.34,5.36.49l2.87.22,2.6.17c4.36.29,8.6.46,12.66.53h0c1.77,0,3.5.06,5.2.06q4.27,0,8.83-.15l1.67-.06q4.2-.15,8.6-.45l2.24-.16c2.25-.16,4.54-.36,6.85-.59.77-.07,1.55-.15,2.32-.24l2.28-.25q2.66-.3,5.36-.66l2.9-.4,1.45-.21,1.45-.22,2.44-.39c2.4-.38,4.82-.8,7.23-1.27l1.38-.26,1.57-.32c.63-.12,1.27-.25,1.9-.39l1-.22c.6-.12,1.19-.25,1.78-.39q1.38-.3,2.76-.63l2.85-.69q2.92-.74,5.84-1.54l.81-.23c50.52-28.09,84.88-83.35,84.88-146.93C421.78,208.24,396.4,159.74,357.2,129.35ZM194.75,144.06l1.49-.83a1,1,0,0,1,1.33.33l2.59,3.95a1,1,0,0,1,.09.94A185.44,185.44,0,0,0,228,153.52a226.91,226.91,0,0,0,25.67,1.31c1,0,1.94,0,2.92,0l-2.92-3.63-17.29-21.47a1,1,0,0,1,.57-1.63,139.05,139.05,0,0,1,16.72-2.4q5.71-.47,11.53-.47a140.15,140.15,0,0,1,65.52,16.15,1,1,0,0,1,.09,1.73c-4.27,3-12.48,6.59-24.52,9.49h0q-4.92,1.77-10,3A160.58,160.58,0,0,1,262,160.36c-2.75.09-5.51.12-8.26.08a155,155,0,0,1-26.32-2.51,114.72,114.72,0,0,1-28.94-9.12c-1.25-.45-2.41-.9-3.5-1.35A1.89,1.89,0,0,1,194.75,144.06ZM389.43,334q-2,3.63-4.15,7.13c0,.07,0,.07,0,.07l-.5.79q-3.24,5.11-6.89,9.93h0c-19.15,14.52-58.76,29.71-114.49,29.71-48.6,0-84.94-11.57-106.15-23.94q-4.48-5.3-8.46-11l0,0c-.66-1-1.31-1.93-1.94-2.91q-3.48-5.32-6.47-11a141.1,141.1,0,0,1,29.79-170.57,1,1,0,0,1,.25-.16,46.36,46.36,0,0,1-3.6-3.41,32.89,32.89,0,0,1-5.83-8.36,26,26,0,0,1-1.67-4.8,22.77,22.77,0,0,1-.47-5,23.27,23.27,0,0,0,3.5,9,33.09,33.09,0,0,0,6.39,7.12,52.73,52.73,0,0,0,7.83,5.55,90.19,90.19,0,0,0,8.58,4.42,140.25,140.25,0,0,0,18.26,6.57,193.67,193.67,0,0,0,19,4.54c6.38,1.29,12.84,2.24,19.31,3,4,.51,8.06.88,12.1,1.17v.23c1.35,0,2.71,0,4.06,0h.93c38,0,78.25-8.12,93.54-25.68a1,1,0,0,1,1.39-.13,141.65,141.65,0,0,1,47.79,72.39c-12.45-7.08-29.6-14.26-49.77-22.71,6.66,16.05,8.84,23.85,12.45,36.77,19.39,7.88,24.76,10.31,35.79,15.81-12.61,28.15-22,36.6-28.27,42.2-.18,16.23-1,23.81-3.3,37,16.88-14.62,27.65-27.68,34.63-39.36A140.83,140.83,0,0,1,389.43,334Z"/><path class="cls-1" d="M337.62,309.05a264.38,264.38,0,0,1-2.06,36.51c-74.39-27.26-81.84-34.15-98.15-49.25l-.11-7.86h-.05l-.08-8.08c22-14,58.73-37.41,85.63-67.35a371.52,371.52,0,0,1,9,37.63C315.61,265,306.6,272,285.88,286.33,320.06,304.34,322.85,305.81,337.62,309.05Z"/><path class="cls-1" d="M285.88,286.33c34.18,18,37,19.48,51.74,22.72a264.38,264.38,0,0,1-2.06,36.51c-74.39-27.26-81.84-34.15-98.15-49.25l-.11-7.86h-.05l-.08-8.08c22-14,58.73-37.41,85.63-67.35a371.52,371.52,0,0,1,9,37.63C315.61,265,306.6,272,285.88,286.33Z"/><path class="cls-1" d="M357.2,129.35l0,0c-.66-.45-1.33-.89-2-1.33a.93.93,0,0,1-.28-.28l-.17-.25c-.09-.15-.19-.29-.29-.44-7.82-11.49-25.79-19.35-47.4-23.86-6-1.24-12.26-2.24-18.68-3a256.52,256.52,0,0,0-29.66-1.69c-1.66,0-3.32,0-5,0A252.49,252.49,0,0,0,222.58,101q-3.87.55-7.62,1.25a1,1,0,0,1-1-.36L155.06,28.12,155,28c-1.88-1.85-5.35-2.29-9.16-3h-.13L2.83,2.72a1,1,0,0,0-1.16,1L7.76,16.29a1,1,0,0,0,.76,1l133,41c.24.06.76.74.9.95l35.35,54a1,1,0,0,1-.36,1.42c-8.87,5-15.17,11.24-17.56,18.76a22.49,22.49,0,0,0-1.06,6.38v.06a1,1,0,0,1-.34.74,165,165,0,0,0-57.79,110.9q-.27,2.85-.43,5.73-.25,4.55-.26,9.17c0,1.45,0,2.91.05,4.35a164.11,164.11,0,0,0,11.41,56.33,1.8,1.8,0,0,1,.08.21c.24.6.48,1.21.73,1.81s.47,1.14.72,1.71l.75,1.75q2.17,5,4.67,9.8c1.31,2.53,2.69,5,4.13,7.48a1.67,1.67,0,0,1,.12.23s0,0,0,0c.42.71.84,1.42,1.28,2.13a163.61,163.61,0,0,0,13.77,19.41,1.07,1.07,0,0,1,.19.18,165.86,165.86,0,0,0,27.93,26.73q3.75,2.83,7.67,5.46c.57.39,1.13.76,1.71,1.12,1.26.46,2.53.92,3.8,1.35l.85.28,1.9.64c.81.27,1.63.53,2.44.78.18.07.37.12.55.17.65.21,1.3.41,2,.6l.39.12.48.14c2.27.67,4.57,1.3,6.87,1.89l2.23.56c.74.19,1.49.37,2.23.54l2.24.52,2.78.61c.74.17,1.49.32,2.23.47l1.84.37,1.49.29c.93.18,1.86.36,2.79.52,4.67.85,9.33,1.56,13.93,2.15.95.13,1.89.24,2.83.35l2.78.33,2.82.29c1.8.18,3.59.34,5.36.49l2.87.22,2.6.17c4.36.29,8.6.46,12.66.53h0c1.77,0,3.5.06,5.2.06q4.27,0,8.83-.15l1.67-.06q4.2-.15,8.6-.45l2.24-.16c2.25-.16,4.54-.36,6.85-.59.77-.07,1.55-.15,2.32-.24l2.28-.25q2.66-.3,5.36-.66l2.9-.4,1.45-.21,1.45-.22,2.44-.39c2.4-.38,4.82-.8,7.23-1.27l1.38-.26,1.57-.32c.63-.12,1.27-.25,1.9-.39l1-.22c.6-.12,1.19-.25,1.78-.39q1.38-.3,2.76-.63l2.85-.69q2.92-.74,5.84-1.54l.81-.23c50.52-28.09,84.88-83.35,84.88-146.93C421.78,208.24,396.4,159.74,357.2,129.35ZM194.75,144.06l1.49-.83a1,1,0,0,1,1.33.33l2.59,3.95a1,1,0,0,1,.09.94A185.44,185.44,0,0,0,228,153.52a226.91,226.91,0,0,0,25.67,1.31c1,0,1.94,0,2.92,0l-2.92-3.63-17.29-21.47a1,1,0,0,1,.57-1.63,139.05,139.05,0,0,1,16.72-2.4q5.71-.47,11.53-.47a140.15,140.15,0,0,1,65.52,16.15,1,1,0,0,1,.09,1.73c-4.27,3-12.48,6.59-24.52,9.49h0q-4.92,1.77-10,3A160.58,160.58,0,0,1,262,160.36c-2.75.09-5.51.12-8.26.08a155,155,0,0,1-26.32-2.51,114.72,114.72,0,0,1-28.94-9.12c-1.25-.45-2.41-.9-3.5-1.35A1.89,1.89,0,0,1,194.75,144.06ZM389.43,334q-2,3.63-4.15,7.13c0,.07,0,.07,0,.07l-.5.79q-3.24,5.11-6.89,9.93h0c-19.15,14.52-58.76,29.71-114.49,29.71-48.6,0-84.94-11.57-106.15-23.94q-4.48-5.3-8.46-11l0,0c-.66-1-1.31-1.93-1.94-2.91q-3.48-5.32-6.47-11a141.1,141.1,0,0,1,29.79-170.57,1,1,0,0,1,.25-.16,46.36,46.36,0,0,1-3.6-3.41,32.89,32.89,0,0,1-5.83-8.36,26,26,0,0,1-1.67-4.8,22.77,22.77,0,0,1-.47-5,23.27,23.27,0,0,0,3.5,9,33.09,33.09,0,0,0,6.39,7.12,52.73,52.73,0,0,0,7.83,5.55,90.19,90.19,0,0,0,8.58,4.42,140.25,140.25,0,0,0,18.26,6.57,193.67,193.67,0,0,0,19,4.54c6.38,1.29,12.84,2.24,19.31,3,4,.51,8.06.88,12.1,1.17v.23c1.35,0,2.71,0,4.06,0h.93c38,0,78.25-8.12,93.54-25.68a1,1,0,0,1,1.39-.13,141.65,141.65,0,0,1,47.79,72.39c-12.45-7.08-29.6-14.26-49.77-22.71,6.66,16.05,8.84,23.85,12.45,36.77,19.39,7.88,24.76,10.31,35.79,15.81-12.61,28.15-22,36.6-28.27,42.2-.18,16.23-1,23.81-3.3,37,16.88-14.62,27.65-27.68,34.63-39.36A140.83,140.83,0,0,1,389.43,334Z"/><path class="cls-1" d="M337.62,309.05a264.38,264.38,0,0,1-2.06,36.51c-74.39-27.26-81.84-34.15-98.15-49.25l-.11-7.86h-.05l-.08-8.08c22-14,58.73-37.41,85.63-67.35a371.52,371.52,0,0,1,9,37.63C315.61,265,306.6,272,285.88,286.33,320.06,304.34,322.85,305.81,337.62,309.05Z"/><path class="cls-1" d="M285.88,286.33c34.18,18,37,19.48,51.74,22.72a264.38,264.38,0,0,1-2.06,36.51c-74.39-27.26-81.84-34.15-98.15-49.25l-.11-7.86h-.05l-.08-8.08c22-14,58.73-37.41,85.63-67.35a371.52,371.52,0,0,1,9,37.63C315.61,265,306.6,272,285.88,286.33Z"/><path class="cls-1" d="M357.2,129.35l0,0c-.66-.45-1.33-.89-2-1.33a.93.93,0,0,1-.28-.28l-.17-.25c-.09-.15-.19-.29-.29-.44-7.82-11.49-25.79-19.35-47.4-23.86-6-1.24-12.26-2.24-18.68-3a256.52,256.52,0,0,0-29.66-1.69c-1.66,0-3.32,0-5,0A252.49,252.49,0,0,0,222.58,101q-3.87.55-7.62,1.25a1,1,0,0,1-1-.36L155.06,28.12,155,28c-1.88-1.85-5.35-2.29-9.16-3h-.13L2.83,2.72a1,1,0,0,0-1.16,1L7.76,16.29a1,1,0,0,0,.76,1l133,41c.24.06.76.74.9.95l35.35,54a1,1,0,0,1-.36,1.42c-8.87,5-15.17,11.24-17.56,18.76a22.49,22.49,0,0,0-1.06,6.38v.06a1,1,0,0,1-.34.74,165,165,0,0,0-57.79,110.9q-.27,2.85-.43,5.73-.25,4.55-.26,9.17c0,1.45,0,2.91.05,4.35a164.11,164.11,0,0,0,11.41,56.33,1.8,1.8,0,0,1,.08.21c.24.6.48,1.21.73,1.81s.47,1.14.72,1.71l.75,1.75q2.17,5,4.67,9.8c1.31,2.53,2.69,5,4.13,7.48a1.67,1.67,0,0,1,.12.23s0,0,0,0c.42.71.84,1.42,1.28,2.13a163.61,163.61,0,0,0,13.77,19.41,1.07,1.07,0,0,1,.19.18,165.86,165.86,0,0,0,27.93,26.73q3.75,2.83,7.67,5.46c.57.39,1.13.76,1.71,1.12,1.26.46,2.53.92,3.8,1.35l.85.28,1.9.64c.81.27,1.63.53,2.44.78.18.07.37.12.55.17.65.21,1.3.41,2,.6l.39.12.48.14c2.27.67,4.57,1.3,6.87,1.89l2.23.56c.74.19,1.49.37,2.23.54l2.24.52,2.78.61c.74.17,1.49.32,2.23.47l1.84.37,1.49.29c.93.18,1.86.36,2.79.52,4.67.85,9.33,1.56,13.93,2.15.95.13,1.89.24,2.83.35l2.78.33,2.82.29c1.8.18,3.59.34,5.36.49l2.87.22,2.6.17c4.36.29,8.6.46,12.66.53h0c1.77,0,3.5.06,5.2.06q4.27,0,8.83-.15l1.67-.06q4.2-.15,8.6-.45l2.24-.16c2.25-.16,4.54-.36,6.85-.59.77-.07,1.55-.15,2.32-.24l2.28-.25q2.66-.3,5.36-.66l2.9-.4,1.45-.21,1.45-.22,2.44-.39c2.4-.38,4.82-.8,7.23-1.27l1.38-.26,1.57-.32c.63-.12,1.27-.25,1.9-.39l1-.22c.6-.12,1.19-.25,1.78-.39q1.38-.3,2.76-.63l2.85-.69q2.92-.74,5.84-1.54l.81-.23c50.52-28.09,84.88-83.35,84.88-146.93C421.78,208.24,396.4,159.74,357.2,129.35ZM194.75,144.06l1.49-.83a1,1,0,0,1,1.33.33l2.59,3.95a1,1,0,0,1,.09.94A185.44,185.44,0,0,0,228,153.52a226.91,226.91,0,0,0,25.67,1.31c1,0,1.94,0,2.92,0l-2.92-3.63-17.29-21.47a1,1,0,0,1,.57-1.63,139.05,139.05,0,0,1,16.72-2.4q5.71-.47,11.53-.47a140.15,140.15,0,0,1,65.52,16.15,1,1,0,0,1,.09,1.73c-4.27,3-12.48,6.59-24.52,9.49h0q-4.92,1.77-10,3A160.58,160.58,0,0,1,262,160.36c-2.75.09-5.51.12-8.26.08a155,155,0,0,1-26.32-2.51,114.72,114.72,0,0,1-28.94-9.12c-1.25-.45-2.41-.9-3.5-1.35A1.89,1.89,0,0,1,194.75,144.06ZM389.43,334q-2,3.63-4.15,7.13c0,.07,0,.07,0,.07l-.5.79q-3.24,5.11-6.89,9.93h0c-19.15,14.52-58.76,29.71-114.49,29.71-48.6,0-84.94-11.57-106.15-23.94q-4.48-5.3-8.46-11l0,0c-.66-1-1.31-1.93-1.94-2.91q-3.48-5.32-6.47-11a141.1,141.1,0,0,1,29.79-170.57,1,1,0,0,1,.25-.16,46.36,46.36,0,0,1-3.6-3.41,32.89,32.89,0,0,1-5.83-8.36,26,26,0,0,1-1.67-4.8,22.77,22.77,0,0,1-.47-5,23.27,23.27,0,0,0,3.5,9,33.09,33.09,0,0,0,6.39,7.12,52.73,52.73,0,0,0,7.83,5.55,90.19,90.19,0,0,0,8.58,4.42,140.25,140.25,0,0,0,18.26,6.57,193.67,193.67,0,0,0,19,4.54c6.38,1.29,12.84,2.24,19.31,3,4,.51,8.06.88,12.1,1.17v.23c1.35,0,2.71,0,4.06,0h.93c38,0,78.25-8.12,93.54-25.68a1,1,0,0,1,1.39-.13,141.65,141.65,0,0,1,47.79,72.39c-12.45-7.08-29.6-14.26-49.77-22.71,6.66,16.05,8.84,23.85,12.45,36.77,19.39,7.88,24.76,10.31,35.79,15.81-12.61,28.15-22,36.6-28.27,42.2-.18,16.23-1,23.81-3.3,37,16.88-14.62,27.65-27.68,34.63-39.36A140.83,140.83,0,0,1,389.43,334Z"/><path class="cls-1" d="M337.62,309.05a264.38,264.38,0,0,1-2.06,36.51c-74.39-27.26-81.84-34.15-98.15-49.25l-.11-7.86h-.05l-.08-8.08c22-14,58.73-37.41,85.63-67.35a371.52,371.52,0,0,1,9,37.63C315.61,265,306.6,272,285.88,286.33,320.06,304.34,322.85,305.81,337.62,309.05Z"/><path class="cls-1" d="M285.88,286.33c34.18,18,37,19.48,51.74,22.72a264.38,264.38,0,0,1-2.06,36.51c-74.39-27.26-81.84-34.15-98.15-49.25l-.11-7.86h-.05l-.08-8.08c22-14,58.73-37.41,85.63-67.35a371.52,371.52,0,0,1,9,37.63C315.61,265,306.6,272,285.88,286.33Z"/><path class="cls-1" d="M357.2,129.35l0,0c-.66-.45-1.33-.89-2-1.33a.93.93,0,0,1-.28-.28l-.17-.25c-.09-.15-.19-.29-.29-.44-7.82-11.49-25.79-19.35-47.4-23.86-6-1.24-12.26-2.24-18.68-3a256.52,256.52,0,0,0-29.66-1.69c-1.66,0-3.32,0-5,0A252.49,252.49,0,0,0,222.58,101q-3.87.55-7.62,1.25a1,1,0,0,1-1-.36L155.06,28.12,155,28c-1.88-1.85-5.35-2.29-9.16-3h-.13L2.83,2.72a1,1,0,0,0-1.16,1L7.76,16.29a1,1,0,0,0,.76,1l133,41c.24.06.76.74.9.95l35.35,54a1,1,0,0,1-.36,1.42c-8.87,5-15.17,11.24-17.56,18.76a22.49,22.49,0,0,0-1.06,6.38v.06a1,1,0,0,1-.34.74,165,165,0,0,0-57.79,110.9q-.27,2.85-.43,5.73-.25,4.55-.26,9.17c0,1.45,0,2.91.05,4.35a164.11,164.11,0,0,0,11.41,56.33,1.8,1.8,0,0,1,.08.21c.24.6.48,1.21.73,1.81s.47,1.14.72,1.71l.75,1.75q2.17,5,4.67,9.8c1.31,2.53,2.69,5,4.13,7.48a1.67,1.67,0,0,1,.12.23s0,0,0,0c.42.71.84,1.42,1.28,2.13a163.61,163.61,0,0,0,13.77,19.41,1.07,1.07,0,0,1,.19.18,165.86,165.86,0,0,0,27.93,26.73q3.75,2.83,7.67,5.46c.57.39,1.13.76,1.71,1.12,1.26.46,2.53.92,3.8,1.35l.85.28,1.9.64c.81.27,1.63.53,2.44.78.18.07.37.12.55.17.65.21,1.3.41,2,.6l.39.12.48.14c2.27.67,4.57,1.3,6.87,1.89l2.23.56c.74.19,1.49.37,2.23.54l2.24.52,2.78.61c.74.17,1.49.32,2.23.47l1.84.37,1.49.29c.93.18,1.86.36,2.79.52,4.67.85,9.33,1.56,13.93,2.15.95.13,1.89.24,2.83.35l2.78.33,2.82.29c1.8.18,3.59.34,5.36.49l2.87.22,2.6.17c4.36.29,8.6.46,12.66.53h0c1.77,0,3.5.06,5.2.06q4.27,0,8.83-.15l1.67-.06q4.2-.15,8.6-.45l2.24-.16c2.25-.16,4.54-.36,6.85-.59.77-.07,1.55-.15,2.32-.24l2.28-.25q2.66-.3,5.36-.66l2.9-.4,1.45-.21,1.45-.22,2.44-.39c2.4-.38,4.82-.8,7.23-1.27l1.38-.26,1.57-.32c.63-.12,1.27-.25,1.9-.39l1-.22c.6-.12,1.19-.25,1.78-.39q1.38-.3,2.76-.63l2.85-.69q2.92-.74,5.84-1.54l.81-.23c50.52-28.09,84.88-83.35,84.88-146.93C421.78,208.24,396.4,159.74,357.2,129.35ZM194.75,144.06l1.49-.83a1,1,0,0,1,1.33.33l2.59,3.95a1,1,0,0,1,.09.94A185.44,185.44,0,0,0,228,153.52a226.91,226.91,0,0,0,25.67,1.31c1,0,1.94,0,2.92,0l-2.92-3.63-17.29-21.47a1,1,0,0,1,.57-1.63,139.05,139.05,0,0,1,16.72-2.4q5.71-.47,11.53-.47a140.15,140.15,0,0,1,65.52,16.15,1,1,0,0,1,.09,1.73c-4.27,3-12.48,6.59-24.52,9.49h0q-4.92,1.77-10,3A160.58,160.58,0,0,1,262,160.36c-2.75.09-5.51.12-8.26.08a155,155,0,0,1-26.32-2.51,114.72,114.72,0,0,1-28.94-9.12c-1.25-.45-2.41-.9-3.5-1.35A1.89,1.89,0,0,1,194.75,144.06ZM389.43,334q-2,3.63-4.15,7.13c0,.07,0,.07,0,.07l-.5.79q-3.24,5.11-6.89,9.93h0c-19.15,14.52-58.76,29.71-114.49,29.71-48.6,0-84.94-11.57-106.15-23.94q-4.48-5.3-8.46-11l0,0c-.66-1-1.31-1.93-1.94-2.91q-3.48-5.32-6.47-11a141.1,141.1,0,0,1,29.79-170.57,1,1,0,0,1,.25-.16,46.36,46.36,0,0,1-3.6-3.41,32.89,32.89,0,0,1-5.83-8.36,26,26,0,0,1-1.67-4.8,22.77,22.77,0,0,1-.47-5,23.27,23.27,0,0,0,3.5,9,33.09,33.09,0,0,0,6.39,7.12,52.73,52.73,0,0,0,7.83,5.55,90.19,90.19,0,0,0,8.58,4.42,140.25,140.25,0,0,0,18.26,6.57,193.67,193.67,0,0,0,19,4.54c6.38,1.29,12.84,2.24,19.31,3,4,.51,8.06.88,12.1,1.17v.23c1.35,0,2.71,0,4.06,0h.93c38,0,78.25-8.12,93.54-25.68a1,1,0,0,1,1.39-.13,141.65,141.65,0,0,1,47.79,72.39c-12.45-7.08-29.6-14.26-49.77-22.71,6.66,16.05,8.84,23.85,12.45,36.77,19.39,7.88,24.76,10.31,35.79,15.81-12.61,28.15-22,36.6-28.27,42.2-.18,16.23-1,23.81-3.3,37,16.88-14.62,27.65-27.68,34.63-39.36A140.83,140.83,0,0,1,389.43,334Z"/><path class="cls-1" d="M337.62,309.05a264.38,264.38,0,0,1-2.06,36.51c-74.39-27.26-81.84-34.15-98.15-49.25l-.11-7.86h-.05l-.08-8.08c22-14,58.73-37.41,85.63-67.35a371.52,371.52,0,0,1,9,37.63C315.61,265,306.6,272,285.88,286.33,320.06,304.34,322.85,305.81,337.62,309.05Z"/><path class="cls-1" d="M285.88,286.33c34.18,18,37,19.48,51.74,22.72a264.38,264.38,0,0,1-2.06,36.51c-74.39-27.26-81.84-34.15-98.15-49.25l-.11-7.86h-.05l-.08-8.08c22-14,58.73-37.41,85.63-67.35a371.52,371.52,0,0,1,9,37.63C315.61,265,306.6,272,285.88,286.33Z"/><path class="cls-1" d="M357.2,129.35l0,0c-.66-.45-1.33-.89-2-1.33a.93.93,0,0,1-.28-.28l-.17-.25c-.09-.15-.19-.29-.29-.44-7.82-11.49-25.79-19.35-47.4-23.86-6-1.24-12.26-2.24-18.68-3a256.52,256.52,0,0,0-29.66-1.69c-1.66,0-3.32,0-5,0A252.49,252.49,0,0,0,222.58,101q-3.87.55-7.62,1.25a1,1,0,0,1-1-.36L155.06,28.12,155,28c-1.88-1.85-5.35-2.29-9.16-3h-.13L2.83,2.72a1,1,0,0,0-1.16,1L7.76,16.29a1,1,0,0,0,.76,1l133,41c.24.06.76.74.9.95l35.35,54a1,1,0,0,1-.36,1.42c-8.87,5-15.17,11.24-17.56,18.76a22.49,22.49,0,0,0-1.06,6.38v.06a1,1,0,0,1-.34.74,165,165,0,0,0-57.79,110.9q-.27,2.85-.43,5.73-.25,4.55-.26,9.17c0,1.45,0,2.91.05,4.35a164.11,164.11,0,0,0,11.41,56.33,1.8,1.8,0,0,1,.08.21c.24.6.48,1.21.73,1.81s.47,1.14.72,1.71l.75,1.75q2.17,5,4.67,9.8c1.31,2.53,2.69,5,4.13,7.48a1.67,1.67,0,0,1,.12.23s0,0,0,0c.42.71.84,1.42,1.28,2.13a163.61,163.61,0,0,0,13.77,19.41,1.07,1.07,0,0,1,.19.18,165.86,165.86,0,0,0,27.93,26.73q3.75,2.83,7.67,5.46c.57.39,1.13.76,1.71,1.12,1.26.46,2.53.92,3.8,1.35l.85.28,1.9.64c.81.27,1.63.53,2.44.78.18.07.37.12.55.17.65.21,1.3.41,2,.6l.39.12.48.14c2.27.67,4.57,1.3,6.87,1.89l2.23.56c.74.19,1.49.37,2.23.54l2.24.52,2.78.61c.74.17,1.49.32,2.23.47l1.84.37,1.49.29c.93.18,1.86.36,2.79.52,4.67.85,9.33,1.56,13.93,2.15.95.13,1.89.24,2.83.35l2.78.33,2.82.29c1.8.18,3.59.34,5.36.49l2.87.22,2.6.17c4.36.29,8.6.46,12.66.53h0c1.77,0,3.5.06,5.2.06q4.27,0,8.83-.15l1.67-.06q4.2-.15,8.6-.45l2.24-.16c2.25-.16,4.54-.36,6.85-.59.77-.07,1.55-.15,2.32-.24l2.28-.25q2.66-.3,5.36-.66l2.9-.4,1.45-.21,1.45-.22,2.44-.39c2.4-.38,4.82-.8,7.23-1.27l1.38-.26,1.57-.32c.63-.12,1.27-.25,1.9-.39l1-.22c.6-.12,1.19-.25,1.78-.39q1.38-.3,2.76-.63l2.85-.69q2.92-.74,5.84-1.54l.81-.23c50.52-28.09,84.88-83.35,84.88-146.93C421.78,208.24,396.4,159.74,357.2,129.35ZM194.75,144.06l1.49-.83a1,1,0,0,1,1.33.33l2.59,3.95a1,1,0,0,1,.09.94A185.44,185.44,0,0,0,228,153.52a226.91,226.91,0,0,0,25.67,1.31c1,0,1.94,0,2.92,0l-2.92-3.63-17.29-21.47a1,1,0,0,1,.57-1.63,139.05,139.05,0,0,1,16.72-2.4q5.71-.47,11.53-.47a140.15,140.15,0,0,1,65.52,16.15,1,1,0,0,1,.09,1.73c-4.27,3-12.48,6.59-24.52,9.49h0q-4.92,1.77-10,3A160.58,160.58,0,0,1,262,160.36c-2.75.09-5.51.12-8.26.08a155,155,0,0,1-26.32-2.51,114.72,114.72,0,0,1-28.94-9.12c-1.25-.45-2.41-.9-3.5-1.35A1.89,1.89,0,0,1,194.75,144.06ZM389.43,334q-2,3.63-4.15,7.13c0,.07,0,.07,0,.07l-.5.79q-3.24,5.11-6.89,9.93h0c-19.15,14.52-58.76,29.71-114.49,29.71-48.6,0-84.94-11.57-106.15-23.94q-4.48-5.3-8.46-11l0,0c-.66-1-1.31-1.93-1.94-2.91q-3.48-5.32-6.47-11a141.1,141.1,0,0,1,29.79-170.57,1,1,0,0,1,.25-.16,46.36,46.36,0,0,1-3.6-3.41,32.89,32.89,0,0,1-5.83-8.36,26,26,0,0,1-1.67-4.8,22.77,22.77,0,0,1-.47-5,23.27,23.27,0,0,0,3.5,9,33.09,33.09,0,0,0,6.39,7.12,52.73,52.73,0,0,0,7.83,5.55,90.19,90.19,0,0,0,8.58,4.42,140.25,140.25,0,0,0,18.26,6.57,193.67,193.67,0,0,0,19,4.54c6.38,1.29,12.84,2.24,19.31,3,4,.51,8.06.88,12.1,1.17v.23c1.35,0,2.71,0,4.06,0h.93c38,0,78.25-8.12,93.54-25.68a1,1,0,0,1,1.39-.13,141.65,141.65,0,0,1,47.79,72.39c-12.45-7.08-29.6-14.26-49.77-22.71,6.66,16.05,8.84,23.85,12.45,36.77,19.39,7.88,24.76,10.31,35.79,15.81-12.61,28.15-22,36.6-28.27,42.2-.18,16.23-1,23.81-3.3,37,16.88-14.62,27.65-27.68,34.63-39.36A140.83,140.83,0,0,1,389.43,334Z"/><path class="cls-1" d="M337.62,309.05a264.38,264.38,0,0,1-2.06,36.51c-74.39-27.26-81.84-34.15-98.15-49.25l-.11-7.86h-.05l-.08-8.08c22-14,58.73-37.41,85.63-67.35a371.52,371.52,0,0,1,9,37.63C315.61,265,306.6,272,285.88,286.33,320.06,304.34,322.85,305.81,337.62,309.05Z"/><path class="cls-1" d="M285.88,286.33c34.18,18,37,19.48,51.74,22.72a264.38,264.38,0,0,1-2.06,36.51c-74.39-27.26-81.84-34.15-98.15-49.25l-.11-7.86h-.05l-.08-8.08c22-14,58.73-37.41,85.63-67.35a371.52,371.52,0,0,1,9,37.63C315.61,265,306.6,272,285.88,286.33Z"/><path class="cls-1" d="M357.2,129.35l0,0c-.66-.45-1.33-.89-2-1.33a.93.93,0,0,1-.28-.28l-.17-.25c-.09-.15-.19-.29-.29-.44-7.82-11.49-25.79-19.35-47.4-23.86-6-1.24-12.26-2.24-18.68-3a256.52,256.52,0,0,0-29.66-1.69c-1.66,0-3.32,0-5,0A252.49,252.49,0,0,0,222.58,101q-3.87.55-7.62,1.25a1,1,0,0,1-1-.36L155.06,28.12,155,28c-1.88-1.85-5.35-2.29-9.16-3h-.13L2.83,2.72a1,1,0,0,0-1.16,1L7.76,16.29a1,1,0,0,0,.76,1l133,41c.24.06.76.74.9.95l35.35,54a1,1,0,0,1-.36,1.42c-8.87,5-15.17,11.24-17.56,18.76a22.49,22.49,0,0,0-1.06,6.38v.06a1,1,0,0,1-.34.74,165,165,0,0,0-57.79,110.9q-.27,2.85-.43,5.73-.25,4.55-.26,9.17c0,1.45,0,2.91.05,4.35a164.11,164.11,0,0,0,11.41,56.33,1.8,1.8,0,0,1,.08.21c.24.6.48,1.21.73,1.81s.47,1.14.72,1.71l.75,1.75q2.17,5,4.67,9.8c1.31,2.53,2.69,5,4.13,7.48a1.67,1.67,0,0,1,.12.23s0,0,0,0c.42.71.84,1.42,1.28,2.13a163.61,163.61,0,0,0,13.77,19.41,1.07,1.07,0,0,1,.19.18,165.86,165.86,0,0,0,27.93,26.73q3.75,2.83,7.67,5.46c.57.39,1.13.76,1.71,1.12,1.26.46,2.53.92,3.8,1.35l.85.28,1.9.64c.81.27,1.63.53,2.44.78.18.07.37.12.55.17.65.21,1.3.41,2,.6l.39.12.48.14c2.27.67,4.57,1.3,6.87,1.89l2.23.56c.74.19,1.49.37,2.23.54l2.24.52,2.78.61c.74.17,1.49.32,2.23.47l1.84.37,1.49.29c.93.18,1.86.36,2.79.52,4.67.85,9.33,1.56,13.93,2.15.95.13,1.89.24,2.83.35l2.78.33,2.82.29c1.8.18,3.59.34,5.36.49l2.87.22,2.6.17c4.36.29,8.6.46,12.66.53h0c1.77,0,3.5.06,5.2.06q4.27,0,8.83-.15l1.67-.06q4.2-.15,8.6-.45l2.24-.16c2.25-.16,4.54-.36,6.85-.59.77-.07,1.55-.15,2.32-.24l2.28-.25q2.66-.3,5.36-.66l2.9-.4,1.45-.21,1.45-.22,2.44-.39c2.4-.38,4.82-.8,7.23-1.27l1.38-.26,1.57-.32c.63-.12,1.27-.25,1.9-.39l1-.22c.6-.12,1.19-.25,1.78-.39q1.38-.3,2.76-.63l2.85-.69q2.92-.74,5.84-1.54l.81-.23c50.52-28.09,84.88-83.35,84.88-146.93C421.78,208.24,396.4,159.74,357.2,129.35ZM194.75,144.06l1.49-.83a1,1,0,0,1,1.33.33l2.59,3.95a1,1,0,0,1,.09.94A185.44,185.44,0,0,0,228,153.52a226.91,226.91,0,0,0,25.67,1.31c1,0,1.94,0,2.92,0l-2.92-3.63-17.29-21.47a1,1,0,0,1,.57-1.63,139.05,139.05,0,0,1,16.72-2.4q5.71-.47,11.53-.47a140.15,140.15,0,0,1,65.52,16.15,1,1,0,0,1,.09,1.73c-4.27,3-12.48,6.59-24.52,9.49h0q-4.92,1.77-10,3A160.58,160.58,0,0,1,262,160.36c-2.75.09-5.51.12-8.26.08a155,155,0,0,1-26.32-2.51,114.72,114.72,0,0,1-28.94-9.12c-1.25-.45-2.41-.9-3.5-1.35A1.89,1.89,0,0,1,194.75,144.06ZM389.43,334q-2,3.63-4.15,7.13c0,.07,0,.07,0,.07l-.5.79q-3.24,5.11-6.89,9.93h0c-19.15,14.52-58.76,29.71-114.49,29.71-48.6,0-84.94-11.57-106.15-23.94q-4.48-5.3-8.46-11l0,0c-.66-1-1.31-1.93-1.94-2.91q-3.48-5.32-6.47-11a141.1,141.1,0,0,1,29.79-170.57,1,1,0,0,1,.25-.16,46.36,46.36,0,0,1-3.6-3.41,32.89,32.89,0,0,1-5.83-8.36,26,26,0,0,1-1.67-4.8,22.77,22.77,0,0,1-.47-5,23.27,23.27,0,0,0,3.5,9,33.09,33.09,0,0,0,6.39,7.12,52.73,52.73,0,0,0,7.83,5.55,90.19,90.19,0,0,0,8.58,4.42,140.25,140.25,0,0,0,18.26,6.57,193.67,193.67,0,0,0,19,4.54c6.38,1.29,12.84,2.24,19.31,3,4,.51,8.06.88,12.1,1.17v.23c1.35,0,2.71,0,4.06,0h.93c38,0,78.25-8.12,93.54-25.68a1,1,0,0,1,1.39-.13,141.65,141.65,0,0,1,47.79,72.39c-12.45-7.08-29.6-14.26-49.77-22.71,6.66,16.05,8.84,23.85,12.45,36.77,19.39,7.88,24.76,10.31,35.79,15.81-12.61,28.15-22,36.6-28.27,42.2-.18,16.23-1,23.81-3.3,37,16.88-14.62,27.65-27.68,34.63-39.36A140.83,140.83,0,0,1,389.43,334Z"/><path class="cls-1" d="M337.62,309.05a264.38,264.38,0,0,1-2.06,36.51c-74.39-27.26-81.84-34.15-98.15-49.25l-.11-7.86h-.05l-.08-8.08c22-14,58.73-37.41,85.63-67.35a371.52,371.52,0,0,1,9,37.63C315.61,265,306.6,272,285.88,286.33,320.06,304.34,322.85,305.81,337.62,309.05Z"/><path class="cls-1" d="M337.62,309.05a264.38,264.38,0,0,1-2.06,36.51c-74.39-27.26-81.84-34.15-98.15-49.25l-.11-7.86h-.05l-.08-8.08c22-14,58.73-37.41,85.63-67.35a371.52,371.52,0,0,1,9,37.63C315.61,265,306.6,272,285.88,286.33,320.06,304.34,322.85,305.81,337.62,309.05Z"/></g></svg>